<svg width="24" height="24" viewBox="0 0 24 24" fill="none" xmlns="http://www.w3.org/2000/svg">
<path d="M4.17492 4.96208C4.11416 4.90876 4.03821 4.86912 3.95633 4.96208L3.87689 5.05185L4.12251 5.26724L4.20196 5.17504C4.28428 5.08603 4.23568 5.01539 4.17492 4.96208Z" fill="#F8F8F8"/>
<path d="M9.99812 22.0315C9.83513 21.9989 9.75964 22.1324 9.7247 22.3303C9.68976 22.5282 9.70085 22.6776 9.86384 22.7101C10.0268 22.7426 10.0959 22.6107 10.1356 22.4128C10.1752 22.2149 10.1572 22.064 9.99812 22.0315Z" fill="#F8F8F8"/>
<path d="M5.48976 3.71436C5.47976 3.6966 5.46575 3.68141 5.44885 3.67001C5.43195 3.6586 5.41263 3.6513 5.39241 3.64867C5.37219 3.64605 5.35164 3.64818 5.33239 3.65489C5.31314 3.6616 5.29571 3.6727 5.28151 3.68733L5.19037 3.76039L5.38024 3.99887L5.4732 3.92414C5.49101 3.91363 5.506 3.89895 5.5169 3.88138C5.52779 3.86381 5.53426 3.84385 5.53576 3.82323C5.53725 3.80261 5.53372 3.78193 5.52547 3.76297C5.51722 3.74401 5.5045 3.72733 5.48839 3.71436H5.48976Z" fill="#F8F8F8"/>
<path d="M10.8794 8.17035C11.3284 8.17035 11.446 7.7985 11.446 7.29617C11.446 6.79385 11.3284 6.422 10.8794 6.422C10.4304 6.422 10.316 6.79309 10.316 7.29541C10.316 7.79774 10.4368 8.17035 10.8794 8.17035Z" fill="#F8F8F8"/>
<path d="M13.1682 22.3415C13.1695 22.3191 13.1656 22.2967 13.1568 22.2761C13.148 22.2554 13.1347 22.2371 13.1177 22.2224C13.1008 22.2077 13.0807 22.1972 13.059 22.1915C13.0373 22.1858 13.0146 22.1851 12.9926 22.1896L12.8638 22.2023L12.8956 22.5353L13.0274 22.5225C13.1594 22.5092 13.177 22.4265 13.1682 22.3415Z" fill="#F8F8F8"/>
<path d="M17.172 2.81807C17.1846 2.80212 17.1933 2.78347 17.1975 2.76358C17.2016 2.74368 17.2011 2.7231 17.1959 2.70345C17.1907 2.68379 17.1811 2.66561 17.1677 2.65034C17.1543 2.63506 17.1375 2.62312 17.1187 2.61544L17.0162 2.55908L16.8708 2.82445L16.9758 2.88171C16.992 2.89363 17.0108 2.90152 17.0307 2.90472C17.0506 2.90793 17.071 2.90636 17.0902 2.90014C17.1093 2.89392 17.1268 2.88324 17.141 2.86897C17.1552 2.8547 17.1658 2.83725 17.172 2.81807V2.81807Z" fill="#F8F8F8"/>
<path d="M9.11209 2.18146L8.86328 1.78577L8.87513 2.25468L9.11209 2.18146Z" fill="#F8F8F8"/>
<path d="M18.422 9.09045C17.9794 9.09045 17.8554 9.4623 17.8554 9.96463C17.8554 10.467 17.9794 10.8388 18.422 10.8388C18.8646 10.8388 18.9886 10.466 18.9886 9.96463C18.9886 9.46321 18.8727 9.09045 18.422 9.09045Z" fill="#F8F8F8"/>
<path d="M7.22386 3.1302C7.35738 3.05866 7.32883 2.92757 7.24209 2.76777C7.15536 2.60798 7.06088 2.50954 6.92417 2.58109C6.78746 2.65263 6.82012 2.78615 6.9067 2.94671C6.99328 3.10727 7.09278 3.2019 7.22386 3.1302Z" fill="#F8F8F8"/>
<path d="M12 0C9.62663 0 7.30655 0.703787 5.33316 2.02236C3.35977 3.34094 1.8217 5.21508 0.913451 7.4078C0.00519938 9.60051 -0.232441 12.0133 0.230582 14.3411C0.693605 16.6689 1.83649 18.807 3.51472 20.4853C5.19295 22.1635 7.33115 23.3064 9.65892 23.7694C11.9867 24.2324 14.3995 23.9948 16.5922 23.0865C18.7849 22.1783 20.6591 20.6402 21.9776 18.6668C23.2962 16.6934 24 14.3734 24 12C24 10.4241 23.6896 8.8637 23.0866 7.4078C22.4835 5.95189 21.5996 4.62902 20.4853 3.51472C19.371 2.40041 18.0481 1.5165 16.5922 0.913445C15.1363 0.310389 13.5759 0 12 0V0ZM21.1391 8.89276H21.3699V11.0383H21.0981L20.0956 9.23833V11.0383H19.8677V8.89261H20.1498L21.142 10.6729L21.1391 8.89276ZM20.1934 5.33575C20.2194 5.31062 20.2508 5.29181 20.2851 5.28076C20.3195 5.26971 20.356 5.26672 20.3917 5.27202C20.4275 5.27732 20.4615 5.29077 20.4912 5.31133C20.5209 5.33189 20.5454 5.35901 20.563 5.39058C20.5904 5.4173 20.6113 5.45005 20.6238 5.48625C20.6364 5.52244 20.6403 5.56106 20.6353 5.59904C20.6303 5.63701 20.6165 5.67329 20.5949 5.70498C20.5734 5.73667 20.5448 5.7629 20.5113 5.78157L20.4319 5.68071C20.4511 5.67072 20.4676 5.65635 20.4802 5.63876C20.4928 5.62118 20.501 5.60088 20.5043 5.57951C20.5075 5.55815 20.5057 5.53631 20.4989 5.51578C20.4921 5.49526 20.4806 5.47661 20.4653 5.46137C20.4073 5.38663 20.3438 5.37402 20.2754 5.4319C20.1404 5.54309 20.4955 5.80466 20.2548 5.98815C20.2278 6.01193 20.1959 6.02942 20.1613 6.03936C20.1267 6.0493 20.0904 6.05145 20.0549 6.04563C20.0194 6.03982 19.9856 6.0262 19.956 6.00575C19.9264 5.9853 19.9017 5.95854 19.8837 5.92739C19.8536 5.89907 19.8306 5.86403 19.8166 5.82514C19.8027 5.78624 19.7981 5.74459 19.8033 5.70359C19.8085 5.66259 19.8233 5.6234 19.8466 5.58922C19.8698 5.55504 19.9008 5.52685 19.937 5.50694L20.0165 5.60871C19.9963 5.62027 19.9791 5.63625 19.9661 5.65543C19.953 5.67462 19.9445 5.69651 19.9411 5.71947C19.9378 5.74243 19.9397 5.76585 19.9466 5.78797C19.9536 5.81009 19.9656 5.83034 19.9815 5.84719C20.0491 5.93453 20.1134 5.93544 20.1691 5.89276C20.3397 5.76714 19.9645 5.51499 20.1934 5.33559V5.33575ZM20.114 4.85332L20.0257 4.93276L19.7921 4.68091L19.6188 4.8398L19.8302 5.06871L19.7436 5.14815L19.5299 4.92729L19.344 5.09894L19.5769 5.3517L19.4886 5.43114L19.1707 5.08466L19.7935 4.50926L20.114 4.85332ZM19.2239 9.96881C19.2239 10.5386 19.0761 11.0584 18.4291 11.0584C17.7822 11.0584 17.6344 10.5386 17.6344 9.96562C17.6344 9.39266 17.7854 8.87286 18.4291 8.87286C19.0729 8.87286 19.2214 9.39174 19.2214 9.96881H19.2239ZM19.2676 3.98704C19.3009 4.01432 19.3276 4.04865 19.346 4.08753C19.3644 4.12642 19.374 4.1689 19.374 4.21192C19.374 4.25494 19.3644 4.29743 19.346 4.33631C19.3276 4.3752 19.3009 4.40952 19.2676 4.43681L19.1707 4.34856C19.2501 4.2477 19.2644 4.14835 19.185 4.0759C19.0809 3.98126 18.9656 4.05372 18.8441 4.188C18.7226 4.32228 18.6618 4.44471 18.7647 4.53919C18.8441 4.61316 18.9469 4.59251 19.0364 4.49544L19.1373 4.5837C19.1137 4.62021 19.0822 4.65094 19.0452 4.6736C19.0081 4.69625 18.9664 4.71023 18.9231 4.71451C18.8799 4.71879 18.8362 4.71325 18.7954 4.69831C18.7546 4.68336 18.7177 4.6594 18.6875 4.6282C18.4991 4.45732 18.6002 4.26744 18.7511 4.10126C18.9021 3.93509 19.077 3.81433 19.2653 3.98689L19.2676 3.98704ZM18.6986 3.51615L18.1765 4.18451L18.0747 4.10506L18.5968 3.43671L18.6986 3.51615ZM17.7401 2.83352L17.8522 2.91296L17.6201 3.61078L18.1764 3.13397L18.2892 3.21342L17.6042 3.77453L17.477 3.69023L17.7401 2.83352ZM17.1735 2.5077C17.2093 2.52025 17.2417 2.54104 17.268 2.56839C17.2943 2.59574 17.3138 2.62889 17.3249 2.66517C17.336 2.70144 17.3385 2.73983 17.3321 2.77722C17.3256 2.81462 17.3105 2.84998 17.2879 2.88045C17.2759 2.91195 17.2568 2.94026 17.2321 2.96323C17.2075 2.98619 17.1778 3.0032 17.1456 3.01294C17.1133 3.02268 17.0792 3.02489 17.046 3.01941C17.0127 3.01393 16.9812 3.0009 16.9537 2.98132L17.0297 3.39539L16.8866 3.31595L16.8333 2.90035L16.6703 3.19838L16.5574 3.1364L16.9644 2.3921L17.1735 2.5077ZM16.0382 9.11043V8.89261H17.2938V9.11043H16.7774V11.0376H16.5565V9.11043H16.0382ZM16.1415 2.0122L16.5723 2.20132L16.5239 2.31175L16.2099 2.17352L16.1177 2.38967L16.4029 2.51438L16.3552 2.62253L16.07 2.49782L15.9682 2.72901L16.2861 2.86724L16.2377 2.97767L15.7998 2.78856L16.1415 2.0122ZM15.0053 2.19251L15.1268 2.23382C15.1157 2.25498 15.1098 2.27843 15.1093 2.30231C15.1089 2.32619 15.1141 2.34984 15.1244 2.37138C15.1347 2.39291 15.1499 2.41174 15.1688 2.42636C15.1877 2.44098 15.2097 2.45099 15.2332 2.45559C15.3372 2.49053 15.3921 2.45559 15.4136 2.38891C15.4827 2.18461 15.0314 2.18309 15.122 1.90648C15.1296 1.87127 15.1452 1.83828 15.1676 1.81007C15.19 1.78186 15.2186 1.7592 15.2512 1.74383C15.2838 1.72846 15.3195 1.72081 15.3555 1.72146C15.3915 1.72212 15.4269 1.73106 15.4589 1.74759C15.4965 1.75461 15.532 1.77028 15.5625 1.79339C15.593 1.81649 15.6178 1.84638 15.6347 1.88069C15.6517 1.915 15.6604 1.95279 15.6603 1.99107C15.6601 2.02935 15.651 2.06706 15.6337 2.10121L15.5122 2.06066C15.5228 2.04169 15.5287 2.02047 15.5295 1.99875C15.5302 1.97704 15.5258 1.95545 15.5165 1.93579C15.5073 1.91613 15.4935 1.89896 15.4763 1.8857C15.4591 1.87244 15.4389 1.86347 15.4176 1.85954C15.3286 1.82916 15.269 1.85392 15.2435 1.93899C15.1926 2.10608 15.6337 2.12658 15.5359 2.4158C15.5266 2.45048 15.5097 2.48269 15.4866 2.51017C15.4635 2.53766 15.4346 2.55975 15.402 2.57489C15.3695 2.59003 15.334 2.59786 15.2981 2.59782C15.2621 2.59779 15.2267 2.58989 15.1941 2.57468C15.153 2.5679 15.1141 2.55142 15.0807 2.52662C15.0472 2.50182 15.0201 2.4694 15.0016 2.43205C14.9832 2.3947 14.9739 2.35349 14.9745 2.31183C14.9752 2.27018 14.9857 2.22927 15.0053 2.19251V2.19251ZM14.4056 6.22329H14.6863L15.6781 8.00263V6.22329H15.9093V8.36901H15.6375L14.6336 6.5681V8.3681H14.4024L14.4056 6.22329ZM14.8634 8.87286C15.3895 8.87286 15.6078 9.22101 15.6078 9.62704H15.376C15.3664 9.29802 15.2089 9.09068 14.8633 9.09068C14.4342 9.09068 14.3206 9.46253 14.3206 9.96486C14.3206 10.4672 14.4541 10.839 14.8633 10.839C15.2186 10.839 15.3831 10.5641 15.3893 10.0841H14.7861V9.86293H15.6173V11.0359H15.4695L15.4258 10.6441C15.3058 10.9191 15.1413 11.0566 14.8496 11.0566C14.26 11.0566 14.0923 10.5368 14.0923 9.9638C14.0923 9.39083 14.2329 8.87271 14.86 8.87271L14.8634 8.87286ZM13.7992 1.3399L14.2514 1.4242L14.2293 1.54268L13.9019 1.48192L13.8589 1.71402L14.1627 1.77129L14.1406 1.88734L13.8368 1.82856L13.7684 2.1957L13.6428 2.17261L13.7992 1.3399ZM12.9052 1.2278L13.3733 1.27625L13.3606 1.39625L13.018 1.36132L12.9934 1.596L13.3033 1.62775L13.293 1.74927L12.9831 1.71752L12.9568 1.96861L13.2977 2.0043L13.2858 2.1243L12.818 2.07494L12.9052 1.2278ZM13.4774 7.16506V6.22329H13.7014V8.36901H13.4774V7.37954H12.5446V8.3681H12.3167V6.22253H12.5446V7.1643L13.4774 7.16506ZM13.4488 8.89276V11.0383H13.1771L12.1745 9.23833V11.0383H11.9436V8.89261H12.2234L13.216 10.6729V8.89261L13.4488 8.89276ZM11.8809 1.19195H12.0097L12.0041 1.54876L12.3079 1.55347L12.3143 1.19666H12.4422L12.4287 2.04456H12.2999L12.3062 1.67104L12.0011 1.66861L11.9954 2.04213H11.8666L11.8809 1.19195ZM11.1387 1.22051C11.1814 1.2146 11.2249 1.21833 11.2659 1.2314C11.3069 1.24448 11.3445 1.26657 11.3759 1.29607C11.4073 1.32557 11.4317 1.36172 11.4473 1.40187C11.4629 1.44202 11.4693 1.48515 11.4661 1.5281L11.3358 1.53843C11.319 1.40962 11.2563 1.33261 11.1474 1.34096C11.0075 1.35205 10.9803 1.48557 10.9955 1.66602C11.0107 1.84648 11.0575 1.97514 11.1974 1.96405C11.307 1.95524 11.3611 1.86714 11.3515 1.7362L11.4826 1.72587C11.4978 1.91894 11.4231 2.06673 11.2069 2.08435C10.9534 2.10425 10.8843 1.89995 10.8661 1.67666C10.8479 1.45337 10.8852 1.23797 11.1387 1.21732V1.22051ZM10.8794 6.20582C11.5296 6.20582 11.6742 6.72562 11.6742 7.30253C11.6742 7.87944 11.5264 8.39134 10.8794 8.39134C10.2325 8.39134 10.0847 7.87245 10.0847 7.29858C10.0847 6.72471 10.2366 6.20263 10.8794 6.20263V6.20582ZM11.2426 8.89595V11.0415H11.0148V8.8958L11.2426 8.89595ZM10.4584 10.8261V11.0408H9.53332V8.89504H9.7598V10.8254L10.4584 10.8261ZM9.6477 1.45033L9.80659 2.16562L10.0514 2.11246L10.0761 2.22775L9.70648 2.30719L9.52178 1.47737L9.6477 1.45033ZM8.9078 1.64157L9.39099 2.38071L9.26142 2.41959L9.17028 2.27423L8.8794 2.364V2.53564L8.75226 2.57453L8.74193 1.69078L8.9078 1.64157ZM8.72674 8.15362C9.13838 8.21088 9.22269 8.07964 9.22269 7.74121V6.22329H9.44765V7.72845C9.44765 8.21726 9.33722 8.44375 8.7237 8.36415L8.72674 8.15362ZM8.97631 10.8231V11.0377H8.052V8.89185H8.27985V10.8222L8.97631 10.8231ZM7.7119 2.07646L8.25388 2.54294L8.01084 1.95251L8.12841 1.90329L8.45423 2.68602L8.31281 2.74557L7.76431 2.27833L8.01069 2.87195L7.89221 2.92116L7.56638 2.13843L7.7119 2.07646ZM6.87038 2.47382C7.104 2.34744 7.25013 2.50648 7.35646 2.70501C7.46279 2.90354 7.51535 3.11028 7.28173 3.2359C7.04811 3.36152 6.89864 3.20552 6.79565 3.00805C6.69266 2.81058 6.63904 2.60035 6.87038 2.47565V2.47382ZM7.35418 9.83286V10.0475H6.50628V10.8184H7.43454V11.0362H6.27813V8.89033H7.43438V9.10815H6.50628V9.83195L7.35418 9.83286ZM5.97935 3.01261C6.00816 2.98747 6.04239 2.96933 6.07937 2.95959C6.11635 2.94986 6.15508 2.94879 6.19254 2.95648C6.23 2.96417 6.26517 2.9804 6.29533 3.00392C6.32548 3.02743 6.3498 3.05759 6.36638 3.09205L6.26309 3.1604C6.25439 3.14059 6.24112 3.12311 6.22438 3.10938C6.20764 3.09566 6.1879 3.08609 6.16676 3.08144C6.14562 3.07679 6.12368 3.0772 6.10272 3.08263C6.08177 3.08807 6.0624 3.09837 6.04618 3.11271C5.96674 3.16511 5.95079 3.228 6.00487 3.3003C6.10664 3.44248 6.39023 3.10481 6.56112 3.35833C6.58311 3.38678 6.59852 3.41976 6.60623 3.45489C6.61394 3.49002 6.61375 3.52642 6.60569 3.56147C6.59762 3.59652 6.58188 3.62934 6.55959 3.65757C6.53731 3.6858 6.50903 3.70873 6.47681 3.72471C6.44659 3.7528 6.41017 3.77339 6.37051 3.7848C6.33085 3.79621 6.28906 3.79813 6.24852 3.79039C6.20799 3.78266 6.16984 3.76549 6.13717 3.74028C6.1045 3.71507 6.07822 3.68252 6.06046 3.64526L6.16679 3.57372C6.177 3.59493 6.19192 3.61353 6.21043 3.62808C6.22893 3.64263 6.25053 3.65275 6.27355 3.65766C6.29657 3.66257 6.32041 3.66215 6.34324 3.65642C6.36608 3.65069 6.38729 3.63981 6.40527 3.62461C6.49641 3.56385 6.50142 3.49899 6.46254 3.44096C6.34102 3.26142 6.06517 3.61899 5.90628 3.37823C5.88178 3.35143 5.86393 3.31924 5.85419 3.28427C5.84444 3.24929 5.84307 3.21251 5.85018 3.17691C5.8573 3.1413 5.8727 3.10787 5.89514 3.07933C5.91758 3.05078 5.94643 3.02793 5.97935 3.01261ZM5.20299 3.59757C5.2283 3.56948 5.25981 3.54768 5.29503 3.5339C5.33024 3.52013 5.36818 3.51476 5.40584 3.51823C5.44349 3.52169 5.47981 3.5339 5.51192 3.55387C5.54403 3.57384 5.57103 3.60102 5.59079 3.63326C5.61604 3.65598 5.6356 3.6843 5.64791 3.71595C5.66022 3.7476 5.66494 3.7817 5.66167 3.8155C5.65841 3.84931 5.64725 3.88187 5.62911 3.91058C5.61097 3.93929 5.58635 3.96335 5.55722 3.98081L5.96962 4.06906L5.84249 4.17159L5.4357 4.06329L5.64942 4.32714L5.54932 4.40658L5.016 3.7478L5.20299 3.59757ZM4.69276 4.03382L4.77616 4.1204L4.52902 4.35888L4.6914 4.52977L4.91636 4.31362L4.9958 4.39868L4.77084 4.61483L4.94643 4.79711L5.19418 4.55802L5.27362 4.64461L4.93443 4.97164L4.35585 4.3598L4.69276 4.03382ZM3.86385 4.88658C3.88465 4.8537 3.91298 4.82624 3.9465 4.80649C3.98002 4.78673 4.01777 4.77525 4.05661 4.773C4.09545 4.77074 4.13427 4.77777 4.16985 4.79351C4.20544 4.80925 4.23676 4.83324 4.26122 4.86349C4.29425 4.88275 4.32211 4.90973 4.34244 4.94211C4.36276 4.9745 4.37494 5.01132 4.37793 5.04944C4.38091 5.08755 4.37462 5.12583 4.35958 5.16098C4.34455 5.19613 4.32122 5.22712 4.2916 5.25129L4.21216 5.34349L4.42755 5.53261L4.34249 5.62876L3.70679 5.07251L3.86385 4.88658ZM3.50947 8.89261L3.93479 10.7154L4.37742 8.89261H4.63884L5.08466 10.7154L5.5074 8.89261H5.73859L5.21879 11.0383H4.95099L4.50122 9.22876L4.06254 11.0383H3.79945L3.27266 8.89261H3.50947ZM6.30441 16.8753C6.30441 15.8534 6.54289 14.8981 7.7078 14.8981C8.69317 14.8981 9.09297 15.5751 9.09297 16.416H8.49388C8.4635 15.8236 8.19752 15.4481 7.70795 15.4481C7.06664 15.4481 6.89742 16.0473 6.89742 16.8785C6.89742 17.7097 7.06664 18.309 7.70795 18.309C8.20922 18.309 8.48841 17.9275 8.49388 17.3291H9.09312C9.09312 18.212 8.69575 18.8588 7.70795 18.8588C6.54608 18.8535 6.30441 17.8982 6.30441 16.8755V16.8753ZM9 22.64L8.86573 22.5971L9.08188 21.9304L8.64714 22.5276L8.51286 22.4839V21.7472L8.30021 22.4108L8.16593 22.3671L8.45681 21.473L8.6476 21.535L8.64198 22.3209L9.09768 21.6811L9.28922 21.7431L9 22.64ZM10.2715 22.4414C10.2239 22.6798 10.1206 22.8999 9.83286 22.8427C9.54517 22.7854 9.53089 22.5454 9.57859 22.3022C9.62628 22.059 9.73747 21.8429 10.0191 21.9001C10.3007 21.9574 10.3211 22.1957 10.2719 22.4414H10.2715ZM11.3491 23.0303L11.179 23.0151L10.8802 22.2737L10.8175 22.9833L10.6762 22.9709L10.7556 22.0347L10.9329 22.0499L11.2262 22.7842L11.2882 22.0817L11.4289 22.0935L11.3491 23.0303ZM10.2047 17.1062V18.8116H9.61838V14.9403H10.2053V16.5671H11.5969V14.9403H12.1833V18.8113H11.5964V17.1059L10.2047 17.1062ZM12.1533 23.0467H12.0129L12.0002 22.2409H11.7919V22.1073L12.3482 22.0985V22.232H12.1391L12.1533 23.0467ZM13.215 22.9823L12.9052 22.635L12.9418 23.0093L12.7996 23.0228L12.7085 22.0867L12.9731 22.0613C13.2583 22.0335 13.3004 22.2202 13.3109 22.3308C13.3199 22.3672 13.3203 22.4053 13.3122 22.4419C13.304 22.4786 13.2875 22.5129 13.2638 22.542C13.2402 22.5712 13.2101 22.5945 13.1759 22.6101C13.1418 22.6258 13.1045 22.6332 13.0669 22.632L13.3943 22.965L13.215 22.9823ZM14.8331 16.5706V17.1094H13.4154V18.2638H14.9825V18.8146H12.8368V14.9412H14.9825V15.4911H13.4154V16.5679L14.8331 16.5706ZM13.858 22.8949L13.6808 21.9715L14.1925 21.873L14.2179 22.0048L13.8444 22.0763L13.8921 22.3314L14.2306 22.2662L14.2552 22.395L13.9167 22.4602L13.97 22.7351L14.3435 22.6636L14.3689 22.7947L13.858 22.8949ZM15.3226 22.5381L15.2241 22.3751L14.8997 22.4705V22.6613L14.7591 22.7026V21.722L14.9386 21.6696L15.4639 22.496L15.3226 22.5381ZM15.871 22.3482L15.5269 21.4741L15.6597 21.4224L15.9585 22.1727L16.2167 22.0709L16.2652 22.1924L15.871 22.3482ZM17.5891 15.4908H16.0729V16.5676H17.4826V17.1064H16.0729V18.8117H15.4914V14.9403H17.5909L17.5891 15.4908ZM2.83003 13.0331V12.8742H21.7145V13.0331H2.83003Z" fill="#F8F8F8"/>
<path d="M14.8991 22.3486L15.1622 22.2716L14.8918 21.8279L14.8991 22.3486Z" fill="#F8F8F8"/>
</svg>
